<?xml version="1.0" encoding="UTF-8"?>
<svg width="27px" height="26px" viewBox="0 0 27 26" version="1.1" xmlns="http://www.w3.org/2000/svg" xmlns:xlink="http://www.w3.org/1999/xlink">
    <!-- Generator: Sketch 43.1 (39012) - http://www.bohemiancoding.com/sketch -->
    <title>Fill 53</title>
    <desc>Created with Sketch.</desc>
    <defs></defs>
    <g id="Page-1" stroke="none" stroke-width="1" fill="none" fill-rule="evenodd">
        <path d="M9.052,11.378 C9.049,11.603 8.979,11.764 8.99,12.003 L8.99,20.003 L9.99,20.003 C9.99,20.003 11.059,19.992 12.208,19.534 C13.357,19.076 14.745,18.008 14.99,16.128 L14.99,14.003 L20.365,13.972 L20.396,13.972 C21.319,13.923 22.082,14.619 22.146,15.534 L22.083,16.003 L17.99,16.003 L17.99,18.003 L21.833,18.003 C21.729,18.775 21.631,19.263 21.521,20.003 L17.99,20.003 L17.99,22.003 L21.208,22.003 C21.103,22.448 20.893,22.978 20.646,23.378 C20.373,23.821 20.139,23.991 19.927,24.003 L2.99,24.003 L2.99,16.534 C4.612,15.674 5.619,14.437 6.271,13.69 C6.946,12.917 7.412,12.331 7.865,11.94 C8.16,11.686 8.628,11.541 9.052,11.378 Z M19.052,2.784 L24.271,7.315 L22.896,9.347 L22.802,9.44 L22.771,9.597 L21.865,12.284 C21.394,12.088 20.903,11.952 20.365,11.972 L20.302,11.972 L13.99,12.003 L12.99,12.003 L12.99,15.878 C12.848,16.967 12.244,17.391 11.49,17.69 C11.239,17.79 11.21,17.737 10.99,17.784 L10.99,11.972 C10.826,8.267 12.147,7.199 13.177,6.409 C13.462,6.19 14.299,5.936 15.49,5.378 C16.487,4.911 17.724,4.071 19.052,2.784 Z M18.99,0.034 L18.333,0.753 C16.865,2.372 15.652,3.095 14.646,3.565 C13.64,4.036 12.79,4.178 11.958,4.815 C11.073,5.494 9.783,6.802 9.24,9.128 C8.075,9.383 7.224,9.829 6.552,10.409 C5.886,10.984 5.39,11.636 4.771,12.347 L4.771,12.378 C3.888,13.393 3.113,14.487 1.615,15.065 L0.99,15.315 L0.99,26.003 L20.052,26.003 C21.146,25.944 21.905,25.186 22.365,24.44 C22.824,23.696 23.079,22.887 23.208,22.222 C23.54,20.528 24.146,15.659 24.146,15.659 L24.177,15.565 L24.177,15.472 C24.147,14.796 23.868,14.223 23.521,13.69 L24.646,10.347 L26.427,7.659 L26.927,6.94 L26.271,6.347 L19.708,0.659 L18.99,0.034 L18.99,0.034 Z" id="Fill-53" fill="#FFFFFF"></path>
    </g>
</svg>