<?xml version="1.0" encoding="UTF-8"?>
<svg width="29px" height="23px" viewBox="0 0 29 23" version="1.1" xmlns="http://www.w3.org/2000/svg" xmlns:xlink="http://www.w3.org/1999/xlink">
    <!-- Generator: Sketch 43.1 (39012) - http://www.bohemiancoding.com/sketch -->
    <title>Fill 26</title>
    <desc>Created with Sketch.</desc>
    <defs></defs>
    <g id="Page-1" stroke="none" stroke-width="1" fill="none" fill-rule="evenodd">
        <path d="M11.4,15.457 C13.468,16.292 15.943,16.194 17.61,15.474 L14.425,19.102 L13.809,18.395 C13.005,17.413 12.231,16.463 11.4,15.457 Z M6.859,10.415 C10.059,10.629 13.848,11.038 17.236,11.142 C17.653,11.142 19.633,11.457 19.737,12.404 C19.529,13.772 15.152,14.193 14.11,13.562 C13.388,12.728 10.726,12.002 8.853,12.704 L6.859,10.415 Z M20.987,2.09 C20.674,2.511 20.258,2.932 19.945,3.353 C19.632,2.932 19.216,2.511 18.59,2.09 L20.987,2.09 Z M4.627,7.773 C4.329,7.423 4.007,7.097 3.684,6.77 L3.061,6.056 L6.304,2.077 L7.803,2.077 C4.917,3.569 4.014,6.226 4.627,7.773 Z M25.845,6.054 C24.886,7.159 23.926,7.979 22.967,9.143 C21.717,7.458 20.258,6.722 18.486,6.722 C16.61,6.616 14.631,6.722 12.755,6.616 C11.4,6.405 8.899,5.774 8.899,4.616 C8.899,3.353 11.191,2.406 12.234,2.195 C12.607,2.124 12.991,2.09 13.372,2.077 L13.839,2.077 C14.991,2.105 16.073,2.361 16.714,2.722 C18.382,3.563 18.799,4.919 19.111,6.077 L23.422,6.077 C23.422,5.281 23.378,3.98 23.378,3.246 L25.845,6.054 Z M23.302,0.077 L5.354,0.077 L0.446,6.099 L14.419,22.138 L28.518,6.08 L23.302,0.077 L23.302,0.077 Z" id="Fill-26" fill="#FFFFFF"></path>
    </g>
</svg>