<?xml version="1.0" encoding="UTF-8"?>
<svg width="27px" height="23px" viewBox="0 0 27 23" version="1.1" xmlns="http://www.w3.org/2000/svg" xmlns:xlink="http://www.w3.org/1999/xlink">
    <!-- Generator: Sketch 43.1 (39012) - http://www.bohemiancoding.com/sketch -->
    <title>Fill 52</title>
    <desc>Created with Sketch.</desc>
    <defs></defs>
    <g id="Page-1" stroke="none" stroke-width="1" fill="none" fill-rule="evenodd">
        <path d="M11.466,18.308 L16.466,18.308 L16.466,16.308 L11.466,16.308 L11.466,18.308 Z M4.466,18.308 L9.466,18.308 L9.466,16.308 L4.466,16.308 L4.466,18.308 Z M11.466,15.308 L16.466,15.308 L16.466,13.308 L11.466,13.308 L11.466,15.308 Z M4.466,15.308 L9.466,15.308 L9.466,13.308 L4.466,13.308 L4.466,15.308 Z M11.466,12.308 L16.466,12.308 L16.466,10.308 L11.466,10.308 L11.466,12.308 Z M4.466,12.308 L9.466,12.308 L9.466,10.308 L4.466,10.308 L4.466,12.308 Z M20.466,9.308 L24.466,9.308 L24.466,18.308 C24.466,19.498 23.656,20.308 22.466,20.308 C21.276,20.308 20.466,19.498 20.466,18.308 L20.466,9.308 Z M6.466,7.308 L14.466,7.308 L14.466,6.308 L6.466,6.308 L6.466,7.308 Z M4.466,9.308 L16.466,9.308 L16.466,4.308 L4.466,4.308 L4.466,9.308 Z M2.466,2.308 L18.466,2.308 L18.466,18.308 C18.466,19.038 18.687,19.719 19.028,20.308 L4.466,20.308 C3.276,20.308 2.466,19.498 2.466,18.308 L2.466,2.308 Z M0.466,0.308 L0.466,18.308 C0.466,20.518 2.256,22.308 4.466,22.308 L22.466,22.308 C24.676,22.308 26.466,20.518 26.466,18.308 L26.466,7.308 L20.466,7.308 L20.466,0.308 L0.466,0.308 L0.466,0.308 Z" id="Fill-52" fill="#FFFFFF"></path>
    </g>
</svg>