<?xml version="1.0" encoding="UTF-8"?>
<svg width="23px" height="20px" viewBox="0 0 23 20" version="1.1" xmlns="http://www.w3.org/2000/svg" xmlns:xlink="http://www.w3.org/1999/xlink">
    <!-- Generator: Sketch 43.1 (39012) - http://www.bohemiancoding.com/sketch -->
    <title>Fill 46</title>
    <desc>Created with Sketch.</desc>
    <defs></defs>
    <g id="Page-1" stroke="none" stroke-width="1" fill="none" fill-rule="evenodd">
        <path d="M2.278,13.725 L3.776,13.725 L4.881,17.654 L3.383,17.654 L2.278,13.725 Z M2.008,12.154 L6.722,12.154 L6.722,7.439 L2.008,7.439 L2.008,12.154 Z M19.294,3.314 L19.294,16.254 C18.644,15.816 18.127,15.417 16.495,14.584 C14.186,13.407 11.207,12.211 8.294,12.154 L8.294,7.439 C11.235,7.381 14.218,6.163 16.519,4.984 C18.148,4.15 18.649,3.753 19.294,3.314 Z M20.865,0.393 L19.613,1.301 C19.613,1.301 18.052,2.46 15.807,3.609 C13.563,4.758 10.643,5.868 8.073,5.868 L0.437,5.868 L0.437,13.038 L0.461,13.161 L2.033,18.661 L2.205,19.225 L6.968,19.225 L6.698,18.219 L5.421,13.725 L8.073,13.725 C10.607,13.725 13.529,14.859 15.783,16.009 C18.037,17.159 19.613,18.292 19.613,18.292 L20.865,19.201 L20.865,12.006 C21.773,11.678 22.437,10.812 22.437,9.797 C22.437,8.782 21.773,7.916 20.865,7.587 L20.865,0.393 L20.865,0.393 Z" id="Fill-46" fill="#FFFFFF"></path>
    </g>
</svg>