<?xml version="1.0" encoding="UTF-8"?>
<svg width="23px" height="23px" viewBox="0 0 23 23" version="1.1" xmlns="http://www.w3.org/2000/svg" xmlns:xlink="http://www.w3.org/1999/xlink">
    <!-- Generator: Sketch 43.1 (39012) - http://www.bohemiancoding.com/sketch -->
    <title>Fill 49</title>
    <desc>Created with Sketch.</desc>
    <defs></defs>
    <g id="Page-1" stroke="none" stroke-width="1" fill="none" fill-rule="evenodd">
        <path d="M10.551,17.264 L12.468,17.264 L12.468,15.347 L10.551,15.347 L10.551,17.264 Z M11.51,5.764 C9.404,5.764 7.676,7.491 7.676,9.597 L9.593,9.597 C9.593,8.526 10.439,7.681 11.51,7.681 C12.58,7.681 13.426,8.526 13.426,9.597 C13.426,10.332 12.956,10.982 12.258,11.214 L11.869,11.334 C11.088,11.594 10.551,12.34 10.551,13.161 L10.551,14.389 L12.468,14.389 L12.468,13.161 L12.857,13.041 C14.332,12.551 15.343,11.15 15.343,9.597 C15.343,7.491 13.616,5.764 11.51,5.764 Z M11.51,1.931 C16.814,1.931 21.093,6.21 21.093,11.514 C21.093,16.817 16.814,21.097 11.51,21.097 C6.206,21.097 1.926,16.817 1.926,11.514 C1.926,6.21 6.206,1.931 11.51,1.931 Z M11.51,0.014 C5.17,0.014 0.01,5.174 0.01,11.514 C0.01,17.853 5.17,23.014 11.51,23.014 C17.85,23.014 23.01,17.853 23.01,11.514 C23.01,5.174 17.85,0.014 11.51,0.014 L11.51,0.014 Z" id="Fill-49" fill="#FFFFFF"></path>
    </g>
</svg>