<?xml version="1.0" encoding="UTF-8"?>
<svg width="25px" height="25px" viewBox="0 0 25 25" version="1.1" xmlns="http://www.w3.org/2000/svg" xmlns:xlink="http://www.w3.org/1999/xlink">
    <!-- Generator: Sketch 43.1 (39012) - http://www.bohemiancoding.com/sketch -->
    <title>Fill 47</title>
    <desc>Created with Sketch.</desc>
    <defs></defs>
    <g id="Page-1" stroke="none" stroke-width="1" fill="none" fill-rule="evenodd">
        <path d="M3.865,19.358 L10.722,19.358 L10.722,17.644 L3.865,17.644 L3.865,19.358 Z M3.865,15.929 L10.722,15.929 L10.722,14.215 L3.865,14.215 L3.865,15.929 Z M15.865,14.215 L21.008,14.215 L21.008,12.501 L15.865,12.501 L15.865,14.215 Z M15.865,10.787 L21.008,10.787 L21.008,9.072 L15.865,9.072 L15.865,10.787 Z M10.036,8.136 L11.794,9.995 L10.036,9.995 L10.036,8.136 Z M2.151,7.358 L8.151,7.358 L8.151,11.644 L12.437,11.644 L12.437,22.787 L2.151,22.787 L2.151,7.358 Z M0.437,5.644 L0.437,24.501 L14.151,24.501 L14.151,10.425 L13.958,10.199 L9.865,5.644 L0.437,5.644 Z M20.322,2.994 L22.08,4.852 L20.322,4.852 L20.322,2.994 Z M10.722,0.501 L10.722,4.787 L12.437,6.501 L12.437,2.215 L18.437,2.215 L18.437,6.501 L22.722,6.501 L22.722,17.644 L15.865,17.644 L15.865,19.358 L24.437,19.358 L24.437,5.282 L24.244,5.056 L20.129,0.705 L19.915,0.501 L10.722,0.501 L10.722,0.501 Z" id="Fill-47" fill="#FFFFFF"></path>
    </g>
</svg>