<?xml version="1.0" encoding="UTF-8"?>
<svg width="27px" height="21px" viewBox="0 0 27 21" version="1.1" xmlns="http://www.w3.org/2000/svg" xmlns:xlink="http://www.w3.org/1999/xlink">
    <!-- Generator: Sketch 43.1 (39012) - http://www.bohemiancoding.com/sketch -->
    <title>Fill 24</title>
    <desc>Created with Sketch.</desc>
    <defs></defs>
    <g id="Page-1" stroke="none" stroke-width="1" fill="none" fill-rule="evenodd">
        <path d="M18.732,12.98 L24.232,12.98 C23.83,14.142 22.788,14.98 21.482,14.98 C20.176,14.98 19.134,14.142 18.732,12.98 Z M2.732,12.98 L8.232,12.98 C7.83,14.142 6.788,14.98 5.482,14.98 C4.176,14.98 3.134,14.142 2.732,12.98 Z M21.482,7.012 L23.763,10.98 L19.201,10.98 L21.482,7.012 Z M5.482,7.012 L7.763,10.98 L3.201,10.98 L5.482,7.012 Z M13.482,1.98 C14.046,1.98 14.482,2.416 14.482,2.98 C14.482,3.544 14.046,3.98 13.482,3.98 C12.918,3.98 12.482,3.544 12.482,2.98 C12.482,2.416 12.918,1.98 13.482,1.98 Z M13.482,-0.02 C12.19,-0.02 11.088,0.824 10.669,1.98 L3.482,1.98 L3.482,3.98 L4.888,3.98 L4.607,4.48 L0.607,11.48 L0.482,11.73 L0.482,11.98 C0.482,14.729 2.732,16.98 5.482,16.98 C8.231,16.98 10.482,14.729 10.482,11.98 L10.482,11.73 L10.357,11.48 L6.357,4.48 L6.076,3.98 L10.669,3.98 C10.975,4.824 11.64,5.488 12.482,5.793 L12.482,18.98 L8.482,18.98 L8.482,20.98 L18.482,20.98 L18.482,18.98 L14.482,18.98 L14.482,5.793 C15.322,5.488 15.991,4.82 16.294,3.98 L20.888,3.98 L20.607,4.48 L16.607,11.48 L16.482,11.73 L16.482,11.98 C16.482,14.729 18.732,16.98 21.482,16.98 C24.231,16.98 26.482,14.729 26.482,11.98 L26.482,11.73 L26.357,11.48 L22.357,4.48 L22.076,3.98 L23.482,3.98 L23.482,1.98 L16.294,1.98 C15.876,0.824 14.774,-0.02 13.482,-0.02 L13.482,-0.02 Z" id="Fill-24" fill="#FFFFFF"></path>
    </g>
</svg>