<?xml version="1.0" encoding="UTF-8"?>
<svg width="24px" height="25px" viewBox="0 0 24 25" version="1.1" xmlns="http://www.w3.org/2000/svg" xmlns:xlink="http://www.w3.org/1999/xlink">
    <!-- Generator: Sketch 43.1 (39012) - http://www.bohemiancoding.com/sketch -->
    <title>Fill 21</title>
    <desc>Created with Sketch.</desc>
    <defs></defs>
    <g id="Page-1" stroke="none" stroke-width="1" fill="none" fill-rule="evenodd">
        <path d="M15.928,13.574 L21.615,19.232 L21.615,19.261 L21.644,19.261 C22.354,19.912 22.371,21.048 21.615,21.804 L21.586,21.804 L21.586,21.833 C20.935,22.543 19.799,22.561 19.043,21.804 L13.385,16.117 L15.928,13.574 Z M2.554,2.457 L4.697,3.771 L4.697,4.686 L4.497,4.886 L3.583,4.886 L2.268,2.743 L2.554,2.457 Z M17.585,2.228 C17.716,2.228 17.804,2.304 17.929,2.314 L14.471,5.772 L15.099,6.429 L17.671,9.087 L18.3,9.745 L21.929,6.115 C21.949,6.325 22.096,6.479 22.072,6.715 L22.072,6.801 C22.072,9.32 20.019,11.374 17.5,11.374 C17.165,11.374 16.757,11.293 16.299,11.202 L15.814,11.116 L15.471,11.459 L5.154,21.804 L5.125,21.804 L5.125,21.833 C4.474,22.543 3.338,22.561 2.582,21.804 L2.582,21.776 L2.554,21.776 C1.843,21.124 1.826,19.988 2.582,19.232 C2.928,18.886 9.641,12.116 12.927,8.83 L13.299,8.458 L13.156,7.944 C13.082,7.648 13.013,7.136 13.013,6.801 C13.013,4.282 15.066,2.228 17.585,2.228 Z M2.268,0.171 L1.753,0.657 L0.467,1.942 L-0.019,2.457 L0.353,3.057 L2.268,6.258 L2.525,6.715 L5.211,6.715 L8.869,10.345 C5.602,13.628 1.444,17.798 1.296,17.946 C-0.137,19.379 -0.141,21.728 1.325,23.09 C2.755,24.501 5.081,24.538 6.44,23.09 L6.469,23.062 L12.099,17.403 L17.757,23.09 L17.843,23.147 C19.277,24.502 21.561,24.518 22.901,23.09 L22.901,23.062 L22.93,23.062 C24.33,21.63 24.344,19.302 22.901,17.946 L22.873,17.917 L18.1,13.174 C21.31,12.874 23.825,10.163 23.873,6.887 L23.901,6.887 L23.901,6.801 C23.99,5.743 23.763,4.733 23.215,3.857 L22.587,2.886 L18.329,7.144 L17.042,5.801 L21.386,1.457 L20.129,0.942 C19.392,0.626 18.544,0.399 17.585,0.399 C14.069,0.399 11.184,3.284 11.184,6.801 C11.184,7.184 11.266,7.517 11.327,7.858 C10.926,8.26 10.625,8.587 10.155,9.059 L6.526,5.429 L6.526,2.714 L6.069,2.457 L2.868,0.542 L2.268,0.171 L2.268,0.171 Z" id="Fill-21" fill="#FFFFFF"></path>
    </g>
</svg>