<?xml version="1.0" encoding="UTF-8"?>
<svg width="25px" height="24px" viewBox="0 0 25 24" version="1.1" xmlns="http://www.w3.org/2000/svg" xmlns:xlink="http://www.w3.org/1999/xlink">
    <!-- Generator: Sketch 43.1 (39012) - http://www.bohemiancoding.com/sketch -->
    <title>Fill 45</title>
    <desc>Created with Sketch.</desc>
    <defs></defs>
    <g id="Page-1" stroke="none" stroke-width="1" fill="none" fill-rule="evenodd">
        <path d="M8.365,14.46 L8.365,16.174 L13.534,16.174 C13.575,15.577 13.689,15.002 13.882,14.46 L8.365,14.46 Z M4.936,16.174 L6.65,16.174 L6.65,14.46 L4.936,14.46 L4.936,16.174 Z M19.936,13.603 C21.603,13.603 22.936,14.936 22.936,16.603 C22.936,18.27 21.603,19.603 19.936,19.603 C18.269,19.603 16.936,18.27 16.936,16.603 C16.936,14.936 18.269,13.603 19.936,13.603 Z M19.936,11.889 C17.343,11.889 15.222,14.009 15.222,16.603 C15.222,17.588 15.53,18.496 16.052,19.254 L12.892,22.415 L14.124,23.647 L17.284,20.487 C18.043,21.009 18.95,21.317 19.936,21.317 C22.53,21.317 24.65,19.196 24.65,16.603 C24.65,14.009 22.53,11.889 19.936,11.889 Z M8.365,11.031 L8.365,12.746 L14.793,12.746 C15.316,12.051 15.992,11.467 16.749,11.031 L8.365,11.031 Z M4.936,12.746 L6.65,12.746 L6.65,11.031 L4.936,11.031 L4.936,12.746 Z M8.365,9.317 L16.936,9.317 L16.936,7.603 L8.365,7.603 L8.365,9.317 Z M4.936,9.317 L6.65,9.317 L6.65,7.603 L4.936,7.603 L4.936,9.317 Z M2.365,4.174 L19.507,4.174 L19.507,2.46 L2.365,2.46 L2.365,4.174 Z M0.65,0.746 L0.65,19.603 L13.909,19.603 L14.472,19.04 C14.306,18.672 14.16,18.291 14.07,17.889 L2.365,17.889 L2.365,5.889 L19.507,5.889 L19.507,10.629 C19.65,10.619 19.791,10.603 19.936,10.603 C20.377,10.603 20.807,10.646 21.222,10.737 L21.222,0.746 L0.65,0.746 L0.65,0.746 Z" id="Fill-45" fill="#FFFFFF"></path>
    </g>
</svg>